<svg width="25" height="24" viewBox="0 0 25 24" fill="none" xmlns="http://www.w3.org/2000/svg">
<path opacity="0.2" d="M4.25 8.25H20.75V4.5C20.75 4.30109 20.671 4.11032 20.5303 3.96967C20.3897 3.82902 20.1989 3.75 20 3.75H5C4.80109 3.75 4.61032 3.82902 4.46967 3.96967C4.32902 4.11032 4.25 4.30109 4.25 4.5V8.25Z" fill="#29B1DD"/>
<path d="M20 3.75H5C4.58579 3.75 4.25 4.08579 4.25 4.5V19.5C4.25 19.9142 4.58579 20.25 5 20.25H20C20.4142 20.25 20.75 19.9142 20.75 19.5V4.5C20.75 4.08579 20.4142 3.75 20 3.75Z" stroke="#29B1DD" stroke-width="2" stroke-linecap="round" stroke-linejoin="round"/>
<path d="M17 2.25V5.25" stroke="#29B1DD" stroke-width="2" stroke-linecap="round" stroke-linejoin="round"/>
<path d="M8 2.25V5.25" stroke="#29B1DD" stroke-width="2" stroke-linecap="round" stroke-linejoin="round"/>
<path d="M4.25 8.25H20.75" stroke="#29B1DD" stroke-width="2" stroke-linecap="round" stroke-linejoin="round"/>
<path d="M15.125 14.25H9.875" stroke="#29B1DD" stroke-width="2" stroke-linecap="round" stroke-linejoin="round"/>
<path d="M12.5 11.625V16.875" stroke="#29B1DD" stroke-width="2" stroke-linecap="round" stroke-linejoin="round"/>
</svg>
